<svg version="1.2" xmlns="http://www.w3.org/2000/svg" viewBox="0 0 1440 1700" width="1440" height="1700">
	<title>css_template</title>
	<style>
		tspan { white-space:pre } 
		.s0 { fill: #80b7b3 } 
	</style>
	<g id="Story 2">
		<g id="Group 1" style="opacity: .5">
			<path id="Ellipse 1 copy" class="s0" d="m330.6 1109.7l-2.8-2.8 1000.6-1000.6 2.8 2.8-1000.6 1000.6m488.6-512.7c5.9-5.8 15.4-5.8 21.3 0 5.8 5.9 5.8 15.4 0 21.3-5.9 5.8-15.4 5.8-21.3 0-5.8-5.9-5.8-15.4 0-21.3zm-673.6 572.7l-2.8-2.8 1000.6-1000.6 2.8 2.8-1000.6 1000.6m775.6-801.7c5.9-5.8 15.4-5.8 21.3 0 5.8 5.9 5.8 15.4 0 21.3-5.9 5.8-15.4 5.8-21.3 0-5.8-5.9-5.8-15.4 0-21.3z"/>
		</g>
	</g>
</svg>